<svg xmlns="http://www.w3.org/2000/svg" viewBox="0 0 52.33 36.17"><defs><style>.cls-1{fill:#369;}.cls-2{fill:#fff;}</style></defs><title>Artboard 2</title><g id="Layer_2" data-name="Layer 2"><rect class="cls-1" x="-5.75" y="-2.34" width="65" height="43.07"/></g><g id="Layer_1" data-name="Layer 1"><path class="cls-2" d="M8.8,18.93a14.24,14.24,0,0,1-6.56,1.4,2.24,2.24,0,1,0,0,4.48,18.26,18.26,0,0,0,10.63-3l-.93-.69A28.84,28.84,0,0,0,8.8,18.93Z"/><path class="cls-2" d="M28,26.21a22.44,22.44,0,0,1-4.48-.07v7.78a2.24,2.24,0,1,0,4.48,0Z"/><path class="cls-2" d="M19.56,17.24A12.87,12.87,0,0,1,22,16.33V11.75a17.86,17.86,0,0,0-6.53,2.66l.93.69A28.87,28.87,0,0,0,19.56,17.24Z"/><path class="cls-2" d="M23.51,18.63a17,17,0,0,0,4.48.1V2.24a2.24,2.24,0,1,0-4.48,0V18.63Z"/><path class="cls-2" d="M2.24,15.84a14.08,14.08,0,0,1,6.92,1.58,27.92,27.92,0,0,1,3.68,2.45c.57.43,1.16.86,1.77,1.29a18.32,18.32,0,0,0,8.26,3.4,21.34,21.34,0,0,0,5.78.09,18,18,0,0,0,8.1-2.9l-.93-.69a28.72,28.72,0,0,0-3.15-2.15,12.91,12.91,0,0,1-3.83,1.19A18,18,0,0,1,22.61,20a12.93,12.93,0,0,1-3.41-1.23,27.79,27.79,0,0,1-3.68-2.45c-.57-.43-1.16-.86-1.77-1.29A18.45,18.45,0,0,0,2.24,11.36a2.24,2.24,0,0,0,0,4.48Z"/><path class="cls-2" d="M50,20.32a14.08,14.08,0,0,1-6.92-1.58,27.92,27.92,0,0,1-3.67-2.45c-.57-.43-1.16-.86-1.77-1.29a21.89,21.89,0,0,0-4.39-2.4,11.64,11.64,0,0,0-4-.91l-.56,0s-.05,3.18-.05,3.71.59.65,1,.74A12.93,12.93,0,0,1,33,17.42a27.78,27.78,0,0,1,3.68,2.45c.57.43,1.16.86,1.77,1.29A18.45,18.45,0,0,0,50,24.8a2.24,2.24,0,0,0,0-4.48Z"/><path class="cls-2" d="M43.53,17.24a14.24,14.24,0,0,1,6.56-1.4,2.24,2.24,0,1,0,0-4.48,18.26,18.26,0,0,0-10.63,3l.93.69A28.84,28.84,0,0,0,43.53,17.24Z"/></g></svg>