<?xml version="1.0" standalone="no"?>
<!DOCTYPE svg PUBLIC "-//W3C//DTD SVG 20010904//EN"
 "http://www.w3.org/TR/2001/REC-SVG-20010904/DTD/svg10.dtd">
<svg version="1.0" xmlns="http://www.w3.org/2000/svg"
 width="301.000000pt" height="301.000000pt" viewBox="0 0 301.000000 301.000000"
 preserveAspectRatio="xMidYMid meet">
<metadata>
Created by potrace 1.11, written by Peter Selinger 2001-2013
</metadata>
<g transform="translate(0.000000,301.000000) scale(0.100000,-0.100000)"
fill="#000000" stroke="none">
<path d="M1420 2530 c-73 -38 -71 -23 -72 -566 0 -267 2 -487 4 -490 8 -7 199
-13 231 -7 l28 6 -2 486 c-1 371 -5 492 -14 511 -35 68 -110 93 -175 60z"/>
<path d="M94 1892 c-12 -1 -36 -19 -55 -38 -31 -32 -34 -41 -33 -91 0 -51 3
-58 37 -89 20 -19 47 -34 59 -35 277 -12 371 -47 645 -243 304 -217 460 -272
768 -270 72 0 160 6 197 13 89 15 230 63 303 102 108 57 106 50 23 112 -41 30
-94 67 -117 81 l-43 28 -51 -21 c-102 -41 -186 -55 -332 -55 -247 0 -352 42
-640 254 -203 150 -365 221 -565 245 -66 8 -167 12 -196 7z"/>
<path d="M2730 1888 c-144 -15 -306 -69 -421 -140 l-49 -30 59 -43 c32 -24 84
-60 116 -81 l56 -38 47 18 c99 38 187 55 307 61 28 2 57 3 67 4 24 1 88 69 89
95 7 137 -60 176 -271 154z"/>
<path d="M1660 1871 c-13 -5 -16 -28 -16 -118 -1 -73 3 -116 10 -122 6 -4 36
-14 66 -21 95 -21 246 -103 405 -220 83 -60 156 -110 163 -110 6 0 12 -4 12
-9 0 -10 112 -62 195 -91 145 -51 367 -74 428 -45 72 34 96 122 52 187 -30 44
-59 55 -160 62 -124 9 -148 13 -231 42 -95 32 -182 84 -338 197 -136 100 -207
143 -305 186 -109 49 -243 78 -281 62z"/>
<path d="M1165 1849 c-73 -21 -246 -101 -264 -122 -7 -10 6 -24 52 -58 126
-92 158 -111 180 -106 23 6 118 39 127 45 2 2 5 61 5 133 1 148 9 139 -100
108z"/>
<path d="M480 1450 c-17 -12 -130 -47 -175 -55 -16 -3 -70 -8 -120 -11 -103
-8 -138 -22 -165 -67 -38 -61 -14 -144 51 -179 29 -16 48 -18 139 -13 173 9
360 65 493 147 45 28 50 22 -92 122 -97 69 -106 72 -131 56z"/>
<path d="M1349 1042 c-4 -56 1 -458 6 -481 7 -34 53 -78 91 -87 60 -15 131 22
154 80 6 16 9 119 9 256 l-2 230 -106 1 c-58 0 -116 2 -128 5 -13 2 -23 1 -24
-4z"/>
</g>
</svg>
