<svg id="Layer_1" data-name="Layer 1" xmlns="http://www.w3.org/2000/svg" viewBox="0 0 100 49.25"><defs><style>.cls-1{fill:#36c;}.cls-2{fill:#fc3;}.cls-3{fill:#ff7bac;}</style></defs><title>logo</title><path class="cls-1" d="M97.76,17.91a18.26,18.26,0,0,0-10.63,3l.93.69a28.82,28.82,0,0,0,3.14,2.14,14.22,14.22,0,0,1,6.56-1.4,2.24,2.24,0,1,0,0-4.48Z"/><path class="cls-2" d="M8.8,25.47a14.24,14.24,0,0,1-6.56,1.4,2.24,2.24,0,1,0,0,4.48,18.26,18.26,0,0,0,10.63-3l-.93-.69A28.84,28.84,0,0,0,8.8,25.47Z"/><path class="cls-3" d="M28,32.76a22.44,22.44,0,0,1-4.48-.07v7.78a2.24,2.24,0,1,0,4.48,0Z"/><path class="cls-3" d="M51.87,32.76a22.66,22.66,0,0,1-4.48-.07V47a2.24,2.24,0,1,0,4.48,0V32.76Z"/><path class="cls-3" d="M75.75,32.76a22.62,22.62,0,0,1-4.48-.06v7.78a2.24,2.24,0,1,0,4.48,0V32.76Z"/><path class="cls-2" d="M97.76,26.87a14.1,14.1,0,0,1-6.92-1.58,28,28,0,0,1-3.68-2.45c-.57-.43-1.16-.86-1.77-1.29a18.36,18.36,0,0,0-8.15-3.38V22.7A12.88,12.88,0,0,1,80.8,24a27.94,27.94,0,0,1,3.68,2.45c.57.43,1.16.86,1.77,1.29a18.44,18.44,0,0,0,11.51,3.64,2.24,2.24,0,1,0,0-4.48Z"/><path class="cls-2" d="M67.32,23.78a12.94,12.94,0,0,1,2.46-.91V18.29A17.83,17.83,0,0,0,63.25,21l.93.69A28.7,28.7,0,0,0,67.32,23.78Z"/><path class="cls-3" d="M71.27,25.17a16.94,16.94,0,0,0,4.48.1V8.78a2.24,2.24,0,1,0-4.48,0V25.17Z"/><path class="cls-2" d="M19.56,23.78A12.87,12.87,0,0,1,22,22.88V18.3A17.86,17.86,0,0,0,15.49,21l.93.69A28.87,28.87,0,0,0,19.56,23.78Z"/><path class="cls-3" d="M23.51,25.17a17,17,0,0,0,4.48.1V8.78a2.24,2.24,0,1,0-4.48,0V25.17Z"/><path class="cls-2" d="M56.56,25.47a12.91,12.91,0,0,1-3.83,1.19,18,18,0,0,1-6.24-.14,13.09,13.09,0,0,1-3.41-1.24,27.61,27.61,0,0,1-3.67-2.45c-.57-.43-1.16-.86-1.77-1.29a18.35,18.35,0,0,0-8.15-3.38V22.7A12.82,12.82,0,0,1,33,24a27.69,27.69,0,0,1,3.68,2.45c.56.42,1.16.86,1.77,1.28a18.31,18.31,0,0,0,8.26,3.4,21.25,21.25,0,0,0,5.78.09,18,18,0,0,0,8.1-2.89l-.94-.69A29.45,29.45,0,0,0,56.56,25.47Z"/><path class="cls-1" d="M2.24,22.39A14.08,14.08,0,0,1,9.16,24a27.92,27.92,0,0,1,3.68,2.45c.57.43,1.16.86,1.77,1.29a18.32,18.32,0,0,0,8.26,3.4,21.34,21.34,0,0,0,5.78.09,18,18,0,0,0,8.1-2.9l-.93-.69a28.72,28.72,0,0,0-3.15-2.15,12.91,12.91,0,0,1-3.83,1.19,18,18,0,0,1-6.24-.15,12.93,12.93,0,0,1-3.41-1.23,27.79,27.79,0,0,1-3.68-2.45c-.57-.43-1.16-.86-1.77-1.29A18.45,18.45,0,0,0,2.24,17.91a2.24,2.24,0,0,0,0,4.48Z"/><path class="cls-1" d="M43.44,23.78a13,13,0,0,1,2.46-.91V18.29A17.85,17.85,0,0,0,39.37,21l.94.69A28.31,28.31,0,0,0,43.44,23.78Z"/><path class="cls-3" d="M47.39,25.17a16.94,16.94,0,0,0,4.48.1v-23a2.24,2.24,0,1,0-4.48,0V25.17Z"/><path class="cls-1" d="M80.44,25.47a12.9,12.9,0,0,1-3.83,1.19,18,18,0,0,1-6.24-.14A13,13,0,0,1,67,25.29a27.62,27.62,0,0,1-3.68-2.45c-.56-.43-1.16-.86-1.77-1.29a18.37,18.37,0,0,0-8.15-3.38V22.7A12.77,12.77,0,0,1,56.92,24a27.63,27.63,0,0,1,3.67,2.45c.57.43,1.16.86,1.77,1.29a18.33,18.33,0,0,0,8.27,3.4,21.2,21.2,0,0,0,5.78.09,17.94,17.94,0,0,0,8.1-2.89l-.93-.69A29.13,29.13,0,0,0,80.44,25.47Z"/></svg>